<svg width="24" height="24" viewBox="0 0 24 24" fill="none" xmlns="http://www.w3.org/2000/svg">
<path fill-rule="evenodd" clip-rule="evenodd" d="M9.22361 2.5529C9.4706 2.67639 9.57071 2.97673 9.44721 3.22372L7.80627 6.5056C8.29094 6.5001 8.81475 6.50011 9.37976 6.50011H14.6202C15.1853 6.50011 15.7091 6.5001 16.1937 6.5056L14.5528 3.22372C14.4293 2.97673 14.5294 2.67639 14.7764 2.5529C15.0234 2.4294 15.3237 2.52951 15.4472 2.7765L17.326 6.53405C17.8045 6.55509 18.2345 6.58919 18.6193 6.64443C19.6463 6.7919 20.4468 7.10198 21.0109 7.79974C21.575 8.4975 21.7104 9.34514 21.6394 10.3803C21.5699 11.3935 21.2944 12.6793 20.9426 14.3208L20.4983 16.3946C20.2607 17.5033 20.0728 18.3801 19.838 19.0604C19.5964 19.7603 19.2877 20.3075 18.7751 20.7219C18.2625 21.1363 17.6628 21.3235 16.9278 21.4131C16.2134 21.5001 15.3166 21.5001 14.1827 21.5001H9.81725C8.68338 21.5001 7.78665 21.5001 7.07222 21.4131C6.33725 21.3235 5.73748 21.1363 5.22488 20.7219C4.71227 20.3075 4.4036 19.7603 4.16202 19.0604C3.9272 18.3801 3.73932 17.5033 3.50175 16.3946L3.05737 14.3208C2.70562 12.6793 2.43008 11.3935 2.36058 10.3803C2.28957 9.34514 2.42505 8.4975 2.98913 7.79974C3.55321 7.10198 4.35365 6.7919 5.38073 6.64443C5.76546 6.58919 6.19554 6.55509 6.67401 6.53405L8.55279 2.7765C8.67628 2.52951 8.97662 2.4294 9.22361 2.5529ZM6.15799 7.5661C5.93086 7.58371 5.71969 7.60602 5.52286 7.63428C4.61033 7.7653 4.10327 8.01221 3.7668 8.42842C3.43033 8.84462 3.29515 9.39217 3.35823 10.3119C3.36245 10.3734 3.36752 10.4361 3.37341 10.5001H20.6266C20.6325 10.4361 20.6375 10.3734 20.6418 10.3119C20.7049 9.39217 20.5697 8.84462 20.2332 8.42842C19.8967 8.01221 19.3897 7.7653 18.4771 7.63428C18.2803 7.60602 18.0691 7.58371 17.842 7.5661L18.4472 8.7765C18.5707 9.02349 18.4706 9.32383 18.2236 9.44732C17.9766 9.57082 17.6763 9.47071 17.5528 9.22372L16.698 7.51414C16.0858 7.50038 15.3849 7.50011 14.5781 7.50011H9.42192C8.61512 7.50011 7.91422 7.50038 7.302 7.51414L6.44721 9.22372C6.32372 9.47071 6.02338 9.57082 5.77639 9.44732C5.5294 9.32383 5.42929 9.02349 5.55279 8.7765L6.15799 7.5661ZM20.4907 11.5001H3.50928C3.63273 12.231 3.81837 13.0996 4.04401 14.1525L4.47258 16.1525C4.71868 17.301 4.89466 18.1181 5.1073 18.7341C5.31548 19.3373 5.54109 19.6917 5.85355 19.9443C6.16602 20.1969 6.55982 20.3432 7.19319 20.4204C7.84013 20.4992 8.67597 20.5001 9.85049 20.5001H14.1495C15.324 20.5001 16.1599 20.4992 16.8068 20.4204C17.4402 20.3432 17.834 20.1969 18.1464 19.9443C18.4589 19.6917 18.6845 19.3373 18.8927 18.7341C19.1053 18.1181 19.2813 17.301 19.5274 16.1525L19.956 14.1525C20.1816 13.0995 20.3673 12.231 20.4907 11.5001ZM9.5 14.0001C9.5 13.724 9.72386 13.5001 10 13.5001H14C14.2761 13.5001 14.5 13.724 14.5 14.0001C14.5 14.2763 14.2761 14.5001 14 14.5001H10C9.72386 14.5001 9.5 14.2763 9.5 14.0001Z" fill="black"/>
</svg>
