<svg width="24" height="24" viewBox="0 0 24 24" fill="none" xmlns="http://www.w3.org/2000/svg">
<path fill-rule="evenodd" clip-rule="evenodd" d="M7.18117 4.63722C7.46504 4.52627 7.80456 4.50465 8.58557 4.50079C8.79171 5.08297 9.34712 5.5 9.99993 5.5H13.9999C14.6528 5.5 15.2082 5.08297 15.4143 4.50079C16.1953 4.50465 16.5348 4.52627 16.8187 4.63722C17.1684 4.77387 17.4725 5.00618 17.6963 5.30757C17.9074 5.59176 18.0219 5.98007 18.3071 7.02618L18.7624 8.69562C18.6699 8.67868 18.5754 8.66332 18.479 8.64937C17.4463 8.49998 16.0905 8.49999 14.358 8.5H14.358H14.3152H9.68455H9.64179H9.64178C7.90931 8.49999 6.55346 8.49998 5.52078 8.64937C5.42438 8.66332 5.32996 8.67867 5.23752 8.69561L5.69272 7.02618C5.97796 5.98007 6.09251 5.59176 6.30356 5.30757C6.52738 5.00618 6.83151 4.77387 7.18117 4.63722ZM17.1827 3.70583C16.7147 3.52289 16.1821 3.5023 15.4146 3.50018C15.2088 2.91749 14.6531 2.5 13.9999 2.5H9.99993C9.34676 2.5 8.79109 2.91749 8.58522 3.50018C7.81782 3.5023 7.28521 3.52289 6.81715 3.70583C6.29267 3.91081 5.83647 4.25927 5.50073 4.71136C5.16279 5.16641 5.0025 5.755 4.75644 6.65852L4.72794 6.76311L4.10741 9.03889C3.70532 9.22813 3.3633 9.48769 3.0835 9.84606C2.5187 10.5694 2.40594 11.4411 2.51367 12.5008C2.61921 13.5389 2.94806 14.8542 3.36825 16.535L3.37862 16.5765L3.3865 16.608C3.65265 17.6726 3.86327 18.5151 4.11206 19.1682C4.36808 19.8402 4.6829 20.3641 5.18828 20.7587C5.69366 21.1533 6.27831 21.3317 6.99237 21.417C7.68624 21.5 8.55464 21.5 9.652 21.5H9.65206H9.68455H14.3152H14.3477H14.3478C15.4451 21.5 16.3135 21.5 17.0074 21.417C17.7215 21.3317 18.3061 21.1533 18.8115 20.7587C19.3169 20.3641 19.6317 19.8402 19.8877 19.1682C20.1365 18.5151 20.3471 17.6726 20.6133 16.608L20.6212 16.5765L20.6315 16.535C21.0517 14.8543 21.3806 13.5389 21.4861 12.5008C21.5938 11.4411 21.4811 10.5694 20.9163 9.84606C20.6365 9.48772 20.2945 9.22817 19.8925 9.03893L19.2719 6.76311L19.2434 6.65853L19.2434 6.65851L19.2434 6.65847C18.9974 5.75498 18.8371 5.1664 18.4991 4.71136C18.1634 4.25927 17.7072 3.91081 17.1827 3.70583ZM9.99993 3.5C9.72379 3.5 9.49993 3.72386 9.49993 4C9.49993 4.27614 9.72379 4.5 9.99993 4.5H13.9999C14.2761 4.5 14.4999 4.27614 14.4999 4C14.4999 3.72386 14.2761 3.5 13.9999 3.5H9.99993ZM3.87171 10.4615C4.20774 10.0311 4.72418 9.77502 5.66395 9.63907C6.61669 9.50125 7.90009 9.5 9.68455 9.5H14.3152C16.0997 9.5 17.3831 9.50125 18.3358 9.63907C19.2756 9.77502 19.792 10.0311 20.1281 10.4615C20.4641 10.8918 20.5873 11.455 20.4912 12.3997C20.3939 13.3574 20.0838 14.6028 19.651 16.3339C19.3752 17.4371 19.1783 18.2214 18.9532 18.8121C18.733 19.3903 18.5045 19.7297 18.1961 19.9705C17.8877 20.2113 17.503 20.3507 16.8887 20.4241C16.261 20.4992 15.4523 20.5 14.3152 20.5H9.68455C8.54745 20.5 7.73877 20.4992 7.11111 20.4241C6.4968 20.3507 6.1121 20.2113 5.80369 19.9705C5.49528 19.7297 5.26679 19.3903 5.04654 18.8121C4.82149 18.2214 4.62455 17.4371 4.34877 16.3339C3.91597 14.6028 3.60591 13.3574 3.50854 12.3997C3.41251 11.455 3.53568 10.8918 3.87171 10.4615ZM8.49993 13C8.49993 12.7239 8.27608 12.5 7.99993 12.5C7.72379 12.5 7.49993 12.7239 7.49993 13V17C7.49993 17.2761 7.72379 17.5 7.99993 17.5C8.27608 17.5 8.49993 17.2761 8.49993 17V13ZM15.9999 12.5C16.2761 12.5 16.4999 12.7239 16.4999 13V17C16.4999 17.2761 16.2761 17.5 15.9999 17.5C15.7238 17.5 15.4999 17.2761 15.4999 17V13C15.4999 12.7239 15.7238 12.5 15.9999 12.5ZM12.4999 13C12.4999 12.7239 12.2761 12.5 11.9999 12.5C11.7238 12.5 11.4999 12.7239 11.4999 13V17C11.4999 17.2761 11.7238 17.5 11.9999 17.5C12.2761 17.5 12.4999 17.2761 12.4999 17V13Z" fill="black"/>
</svg>
