<svg width="24" height="24" viewBox="0 0 24 24" fill="none" xmlns="http://www.w3.org/2000/svg">
<path fill-rule="evenodd" clip-rule="evenodd" d="M5.52042 4.197C3.76859 4.99777 2.5 6.89288 2.5 9.13728C2.5 11.4127 3.43443 13.1631 4.75136 14.646C5.83101 15.8617 7.14053 16.871 8.39624 17.8389C8.69214 18.067 8.98506 18.2928 9.27127 18.5184C9.79501 18.9313 10.2777 19.3063 10.7475 19.5809C11.2174 19.8555 11.6269 20.0002 12 20.0002C12.3731 20.0002 12.7826 19.8555 13.2525 19.5809C13.7223 19.3063 14.205 18.9313 14.7287 18.5184C15.0149 18.2928 15.3079 18.067 15.6038 17.8389C16.8595 16.871 18.169 15.8617 19.2486 14.646C20.5656 13.1631 21.5 11.4127 21.5 9.13728C21.5 6.89288 20.2314 4.99777 18.4796 4.197C16.7593 3.41064 14.4822 3.64292 12.3602 5.84755C12.266 5.94548 12.1359 6.00082 12 6.00082C11.8641 6.00082 11.734 5.94548 11.6398 5.84755C9.5178 3.64292 7.24074 3.41064 5.52042 4.197ZM12 4.79806C9.71068 2.64877 7.15136 2.35198 5.1047 3.28752C2.98149 4.25804 1.5 6.51875 1.5 9.13728C1.5 11.7248 2.57528 13.7016 4.00365 15.31C5.15244 16.6036 6.55612 17.6846 7.81603 18.6549C8.10384 18.8765 8.38414 19.0924 8.65219 19.3037C9.16673 19.7093 9.70317 20.1288 10.243 20.4443C10.7826 20.7596 11.3731 21.0002 12 21.0002C12.6269 21.0002 13.2174 20.7596 13.757 20.4443C14.2968 20.1288 14.8333 19.7093 15.3478 19.3037C15.6159 19.0924 15.8962 18.8765 16.184 18.6549C17.4439 17.6846 18.8476 16.6036 19.9964 15.31C21.4247 13.7016 22.5 11.7248 22.5 9.13728C22.5 6.51875 21.0185 4.25804 18.8953 3.28752C16.8486 2.35198 14.2893 2.64877 12 4.79806Z" fill="black"/>
</svg>
