<svg width="24" height="24" viewBox="0 0 24 24" fill="none" xmlns="http://www.w3.org/2000/svg">
<path fill-rule="evenodd" clip-rule="evenodd" d="M7.33434 1.50001C7.36184 1.50001 7.38969 1.50002 7.41788 1.50002H16.5825C16.6107 1.50002 16.6385 1.50001 16.666 1.50001C17.494 1.49987 18.011 1.49979 18.4661 1.62456C19.4234 1.88697 20.2242 2.54348 20.6692 3.43066C20.8808 3.85248 20.9821 4.35948 21.1444 5.1714C21.1498 5.19836 21.1552 5.22565 21.1607 5.25329L21.7587 8.24289C21.9813 9.35586 21.6612 10.4311 21.0002 11.2226V14.0387C21.0002 15.8916 21.0002 17.3332 20.8493 18.4557C20.6954 19.6004 20.3763 20.4878 19.6822 21.182C18.988 21.8762 18.1006 22.1952 16.9559 22.3491C15.8334 22.5 14.3917 22.5 12.5389 22.5H11.4615C9.60864 22.5 8.16699 22.5 7.04448 22.3491C5.89978 22.1952 5.01238 21.8762 4.31821 21.182C3.62404 20.4878 3.30499 19.6004 3.15109 18.4557C3.00018 17.3332 3.00018 15.8916 3.00019 14.0387L3.00019 11.2226C2.33921 10.4311 2.01912 9.35586 2.24171 8.24289L2.83963 5.25329C2.84516 5.22564 2.85062 5.19833 2.85601 5.17136C3.01825 4.35947 3.11956 3.85247 3.33116 3.43066C3.77621 2.54348 4.57702 1.88697 5.53426 1.62456C5.98938 1.49979 6.50639 1.49987 7.33434 1.50001ZM4.00019 12.0523V14C4.00019 15.8998 4.00125 17.2743 4.14218 18.3225C4.28117 19.3563 4.54791 19.9975 5.02531 20.4749C5.50272 20.9523 6.14391 21.219 7.17772 21.358C7.69705 21.4278 8.29647 21.4633 9.00019 21.4814V18.477C9.00018 18.0293 9.00017 17.6598 9.02735 17.3599C9.05561 17.0481 9.1164 16.7628 9.26814 16.5C9.44367 16.196 9.69615 15.9435 10.0002 15.768C10.263 15.6162 10.5483 15.5554 10.8601 15.5272C11.16 15.5 11.5294 15.5 11.9772 15.5H12.0232C12.4709 15.5 12.8404 15.5 13.1403 15.5272C13.4521 15.5554 13.7374 15.6162 14.0002 15.768C14.3042 15.9435 14.5567 16.196 14.7322 16.5C14.884 16.7628 14.9448 17.0481 14.973 17.3599C15.0002 17.6598 15.0002 18.0293 15.0002 18.477V21.4814C15.7039 21.4633 16.3033 21.4278 16.8227 21.358C17.8565 21.219 18.4977 20.9523 18.9751 20.4749C19.4525 19.9975 19.7192 19.3563 19.8582 18.3225C19.9991 17.2743 20.0002 15.8998 20.0002 14V12.0523C19.4911 12.3365 18.9022 12.5 18.2687 12.5C16.9461 12.5 15.7791 11.7751 15.1658 10.6855C14.532 11.7651 13.3591 12.5 12.0002 12.5C10.6412 12.5 9.46836 11.7651 8.83459 10.6855C8.22124 11.7751 7.0543 12.5 5.73172 12.5C5.09817 12.5 4.50929 12.3365 4.00019 12.0523ZM9.34597 8.56714C9.18894 10.1374 10.4221 11.5 12.0002 11.5C13.5783 11.5 14.8114 10.1374 14.6544 8.56714L14.0477 2.50002H9.95268L9.34597 8.56714ZM8.9477 2.50002H7.41788C6.4789 2.50002 6.10719 2.50439 5.79864 2.58897C5.1149 2.77641 4.54289 3.24534 4.225 3.87905C4.08155 4.16502 4.00436 4.52866 3.82021 5.4494L3.22229 8.43901C2.90558 10.0226 4.11679 11.5 5.73172 11.5C7.04647 11.5 8.14732 10.5038 8.27814 9.19553L8.9477 2.50002ZM15.0527 2.50002L15.7222 9.19553C15.8531 10.5038 16.9539 11.5 18.2687 11.5C19.8836 11.5 21.0948 10.0226 20.7781 8.43901L20.1802 5.4494C19.996 4.52866 19.9188 4.16502 19.7754 3.87905C19.4575 3.24534 18.8855 2.77641 18.2017 2.58897C17.8932 2.50439 17.5215 2.50002 16.5825 2.50002H15.0527ZM14.0002 21.4966V18.5C14.0002 18.0235 13.9997 17.6996 13.9771 17.4502C13.9551 17.2077 13.9154 17.0853 13.8662 17C13.7784 16.848 13.6522 16.7218 13.5002 16.634C13.4149 16.5848 13.2925 16.5451 13.05 16.5231C12.8006 16.5005 12.4767 16.5 12.0002 16.5C11.5237 16.5 11.1997 16.5005 10.9504 16.5231C10.7079 16.5451 10.5854 16.5848 10.5002 16.634C10.3482 16.7218 10.2219 16.848 10.1342 17C10.0849 17.0853 10.0452 17.2077 10.0233 17.4502C10.0007 17.6996 10.0002 18.0235 10.0002 18.5V21.4966C10.4606 21.4999 10.9591 21.5 11.5002 21.5H12.5002C13.0413 21.5 13.5397 21.4999 14.0002 21.4966Z" fill="black"/>
</svg>
