<svg width="24" height="24" viewBox="0 0 24 24" fill="none" xmlns="http://www.w3.org/2000/svg">
<path fill-rule="evenodd" clip-rule="evenodd" d="M11.0933 3.15609C10.6858 3.68821 10.2312 4.50109 9.58974 5.65183L9.26204 6.23969C9.24609 6.26829 9.23038 6.29653 9.21487 6.32439C8.90152 6.88741 8.67273 7.2985 8.30711 7.57605C7.93856 7.85583 7.48711 7.95762 6.87802 8.09496C6.84776 8.10179 6.81712 8.1087 6.78607 8.11572L6.14972 8.2597C4.90289 8.54181 4.02611 8.74166 3.41899 8.98092C2.82129 9.21646 2.6141 9.44093 2.53471 9.6962C2.45363 9.95693 2.49816 10.276 2.8532 10.84C3.21164 11.4094 3.81078 12.112 4.65994 13.105L5.09376 13.6123C5.11396 13.6359 5.13391 13.6592 5.15361 13.6822C5.57213 14.171 5.87487 14.5245 6.01315 14.9692C6.15082 15.412 6.10519 15.88 6.04156 16.5326C6.03857 16.5633 6.03555 16.5943 6.0325 16.6258L5.96691 17.3026C5.8386 18.6268 5.74888 19.5653 5.77929 20.2481C5.80967 20.93 5.95581 21.209 6.15732 21.362C6.35066 21.5087 6.63185 21.5682 7.25117 21.3907C7.87691 21.2115 8.69895 20.8345 9.8664 20.297L10.4622 20.0227C10.4921 20.0089 10.5216 19.9953 10.5507 19.9819C11.118 19.7201 11.5412 19.5248 11.9998 19.5248C12.4585 19.5248 12.8816 19.7201 13.449 19.9819C13.4781 19.9953 13.5076 20.0089 13.5375 20.0227L14.1333 20.297C15.3007 20.8345 16.1228 21.2115 16.7485 21.3907C17.3678 21.5682 17.649 21.5087 17.8424 21.362C18.0439 21.209 18.19 20.93 18.2204 20.2481C18.2508 19.5653 18.1611 18.6268 18.0328 17.3026L17.9672 16.6258C17.9641 16.5943 17.9611 16.5633 17.9581 16.5326C17.8945 15.88 17.8489 15.412 17.9865 14.9692C18.1248 14.5245 18.4276 14.171 18.8461 13.6822C18.8658 13.6592 18.8857 13.6359 18.9059 13.6123L19.3397 13.105C20.1889 12.112 20.788 11.4094 21.1465 10.84C21.5015 10.276 21.5461 9.95693 21.465 9.6962C21.3856 9.44093 21.1784 9.21646 20.5807 8.98092C19.9736 8.74166 19.0968 8.54181 17.85 8.2597L17.2136 8.11572C17.1826 8.1087 17.1519 8.10179 17.1217 8.09496C16.5126 7.95762 16.0611 7.85583 15.6926 7.57605C15.327 7.2985 15.0982 6.88742 14.7848 6.32439C14.7693 6.29653 14.7536 6.26829 14.7376 6.23968L14.41 5.65182C13.7685 4.50109 13.3139 3.68821 12.9064 3.15609C12.4991 2.6243 12.2335 2.5 11.9998 2.5C11.7662 2.5 11.5006 2.6243 11.0933 3.15609ZM10.2994 2.5481C10.7622 1.94376 11.2866 1.5 11.9998 1.5C12.7131 1.5 13.2375 1.94376 13.7003 2.5481C14.1575 3.14513 14.6468 4.02288 15.2618 5.1262L15.6111 5.75278C15.9928 6.43747 16.1197 6.64481 16.2972 6.77956C16.4716 6.91193 16.6924 6.9725 17.4343 7.14038L18.1153 7.29445C19.3073 7.56413 20.26 7.77969 20.9473 8.05055C21.6526 8.3285 22.2067 8.71362 22.4199 9.39926C22.6314 10.0794 22.403 10.7211 21.9928 11.3727C21.5906 12.0116 20.9425 12.7694 20.1282 13.7217L19.6659 14.2622C19.1624 14.851 19.011 15.0425 18.9414 15.2662C18.8712 15.492 18.8864 15.7442 18.9625 16.5293L19.0323 17.2489C19.1555 18.5208 19.2534 19.5303 19.2194 20.2926C19.185 21.0641 19.0115 21.7299 18.447 22.1585C17.8743 22.5932 17.1968 22.5594 16.4731 22.3521C15.7647 22.1491 14.8729 21.7385 13.757 21.2246L13.1192 20.931C12.4229 20.6104 12.2114 20.5248 11.9998 20.5248C11.7883 20.5248 11.5768 20.6104 10.8804 20.931L10.2427 21.2246C9.12678 21.7385 8.23502 22.1491 7.52661 22.3521C6.80293 22.5594 6.12535 22.5932 5.55267 22.1585C4.98815 21.7299 4.81465 21.0641 4.78028 20.2926C4.74633 19.5304 4.84417 18.5208 4.96743 17.2489L5.03716 16.5293C5.11324 15.7442 5.12849 15.492 5.05826 15.2662C4.98869 15.0425 4.83727 14.851 4.33376 14.2622L3.87155 13.7217C3.05719 12.7694 2.40909 12.0116 2.00692 11.3727C1.59669 10.7211 1.3683 10.0794 1.57982 9.39926C1.79303 8.71362 2.34705 8.3285 3.05235 8.05055C3.73967 7.77969 4.69245 7.56413 5.88446 7.29444L6.56539 7.14038C7.30733 6.9725 7.5281 6.91193 7.70247 6.77956C7.87997 6.64481 8.00691 6.43747 8.38858 5.75278L8.73786 5.12621C9.35288 4.02289 9.84217 3.14514 10.2994 2.5481Z" fill="black"/>
</svg>
