<svg width="24" height="24" viewBox="0 0 24 24" fill="none" xmlns="http://www.w3.org/2000/svg">
<path fill-rule="evenodd" clip-rule="evenodd" d="M1.52579 2.8419C1.61312 2.57993 1.89628 2.43835 2.15825 2.52567L2.42316 2.61398C2.43249 2.61709 2.4418 2.62019 2.45108 2.62328C3.08738 2.83537 3.60503 3.00791 4.00818 3.19546C4.42887 3.39117 4.77126 3.62321 5.02824 3.97976C5.28522 4.3363 5.39709 4.7345 5.44972 5.19549C5.46073 5.29197 5.46934 5.3934 5.47607 5.50001L16.4932 5.50001C17.4844 5.49999 18.2852 5.49998 18.8912 5.58969C19.5152 5.68207 20.0568 5.88605 20.395 6.39903C20.7333 6.91201 20.7074 7.49011 20.5465 8.1001C20.3903 8.6924 20.0748 9.42844 19.6843 10.3395L19.2286 11.403C19.0485 11.8233 18.8978 12.1749 18.743 12.45C18.5793 12.7409 18.39 12.9864 18.112 13.1697C17.834 13.353 17.5338 13.4303 17.2019 13.4662C16.8881 13.5 16.5056 13.5 16.0483 13.5H5.77446C5.88414 13.8268 6.03342 14.0688 6.23237 14.2678C6.56332 14.5987 7.01345 14.7923 7.77494 14.8946C8.55082 14.999 9.57179 15 11.0001 15H19.0001C19.2763 15 19.5001 15.2239 19.5001 15.5C19.5001 15.7762 19.2763 16 19.0001 16H10.9622C9.58015 16 8.49193 16 7.6417 15.8857C6.76931 15.7684 6.07299 15.5226 5.52526 14.9749C4.97754 14.4272 4.73172 13.7308 4.61443 12.8585C4.50012 12.0082 4.50013 10.92 4.50014 9.53798V6.88305C4.50014 6.17581 4.49938 5.68737 4.45617 5.30892C4.41442 4.94325 4.33753 4.7317 4.217 4.56447C4.09647 4.39724 3.92009 4.25739 3.58638 4.10215C3.24102 3.94148 2.77788 3.78631 2.10693 3.56266L1.84202 3.47436C1.58005 3.38703 1.43847 3.10387 1.52579 2.8419ZM5.57877 12.5H16.0219C16.5124 12.5 16.8408 12.4993 17.0946 12.4719C17.3363 12.4458 17.4638 12.3993 17.5615 12.3349C17.6592 12.2704 17.7522 12.1716 17.8715 11.9597C17.9966 11.7372 18.1266 11.4356 18.3198 10.9848L18.7484 9.98481C19.1596 9.02521 19.4445 8.35724 19.5796 7.84503C19.7123 7.34205 19.6665 7.11081 19.5602 6.94952C19.4538 6.78824 19.2593 6.65509 18.7447 6.57891C18.2207 6.50133 17.4945 6.50001 16.4505 6.50001H5.49984C5.50014 6.61383 5.50014 6.73165 5.50014 6.85361L5.50014 9.50001C5.50014 10.7942 5.50101 11.754 5.57877 12.5ZM7.50014 9.00001C7.50014 8.72387 7.72399 8.50001 8.00014 8.50001H11.0001C11.2763 8.50001 11.5001 8.72387 11.5001 9.00001C11.5001 9.27616 11.2763 9.50001 11.0001 9.50001H8.00014C7.72399 9.50001 7.50014 9.27616 7.50014 9.00001ZM7.50014 18.5C6.94785 18.5 6.50014 18.9477 6.50014 19.5C6.50014 20.0523 6.94785 20.5 7.50014 20.5C8.05242 20.5 8.50014 20.0523 8.50014 19.5C8.50014 18.9477 8.05242 18.5 7.50014 18.5ZM5.50014 19.5C5.50014 18.3954 6.39557 17.5 7.50014 17.5C8.6047 17.5 9.50014 18.3954 9.50014 19.5C9.50014 20.6046 8.6047 21.5 7.50014 21.5C6.39557 21.5 5.50014 20.6046 5.50014 19.5ZM16.5001 18.5001C15.9479 18.5001 15.5001 18.9478 15.5001 19.5001C15.5001 20.0524 15.9479 20.5001 16.5001 20.5001C17.0524 20.5001 17.5001 20.0524 17.5001 19.5001C17.5001 18.9478 17.0524 18.5001 16.5001 18.5001ZM14.5001 19.5001C14.5001 18.3955 15.3956 17.5001 16.5001 17.5001C17.6047 17.5001 18.5001 18.3955 18.5001 19.5001C18.5001 20.6047 17.6047 21.5001 16.5001 21.5001C15.3956 21.5001 14.5001 20.6047 14.5001 19.5001Z" fill="black"/>
</svg>
