<svg width="24" height="24" viewBox="0 0 24 24" fill="none" xmlns="http://www.w3.org/2000/svg">
<path fill-rule="evenodd" clip-rule="evenodd" d="M11.9609 1.5H12.0391C14.363 1.49999 16.1582 1.49999 17.553 1.68752C18.97 1.87803 20.0485 2.2703 20.8891 3.11091C21.7297 3.95153 22.122 5.03 22.3125 6.44702C22.5 7.84182 22.5 9.63696 22.5 11.9608V12.0392C22.5 14.363 22.5 16.1582 22.3125 17.553C22.122 18.97 21.7297 20.0485 20.8891 20.8891C20.0485 21.7297 18.97 22.122 17.553 22.3125C16.1582 22.5 14.363 22.5 12.0392 22.5H11.9608C9.63696 22.5 7.84182 22.5 6.44702 22.3125C5.03 22.122 3.95153 21.7297 3.11091 20.8891C2.2703 20.0485 1.87803 18.97 1.68752 17.553C1.49999 16.1582 1.49999 14.363 1.5 12.0391V11.9609C1.49999 9.63697 1.49999 7.84183 1.68752 6.44702C1.87803 5.03 2.2703 3.95153 3.11091 3.11091C3.95153 2.2703 5.03 1.87803 6.44702 1.68752C7.84183 1.49999 9.63697 1.49999 11.9609 1.5ZM6.58026 2.6786C5.27414 2.8542 4.44187 3.19417 3.81802 3.81802C3.19417 4.44187 2.8542 5.27414 2.6786 6.58026C2.50106 7.90077 2.5 9.62884 2.5 12C2.5 14.3712 2.50106 16.0992 2.6786 17.4197C2.8542 18.7259 3.19417 19.5581 3.81802 20.182C4.44187 20.8058 5.27414 21.1458 6.58026 21.3214C7.90077 21.4989 9.62884 21.5 12 21.5C14.3712 21.5 16.0992 21.4989 17.4197 21.3214C18.7259 21.1458 19.5581 20.8058 20.182 20.182C20.8058 19.5581 21.1458 18.7259 21.3214 17.4197C21.4989 16.0992 21.5 14.3712 21.5 12C21.5 9.62884 21.4989 7.90077 21.3214 6.58026C21.1458 5.27414 20.8058 4.44187 20.182 3.81802C19.5581 3.19417 18.7259 2.8542 17.4197 2.6786C16.0992 2.50106 14.3712 2.5 12 2.5C9.62884 2.5 7.90077 2.50106 6.58026 2.6786ZM9.14643 9.14645C9.34169 8.95118 9.65827 8.95118 9.85353 9.14645L12 11.2929L14.1464 9.14647C14.3417 8.9512 14.6583 8.9512 14.8535 9.14647C15.0488 9.34173 15.0488 9.65831 14.8535 9.85357L12.7071 12L14.8535 14.1464C15.0488 14.3417 15.0488 14.6583 14.8535 14.8535C14.6582 15.0488 14.3417 15.0488 14.1464 14.8535L12 12.7071L9.85355 14.8536C9.65829 15.0488 9.34171 15.0488 9.14645 14.8536C8.95118 14.6583 8.95118 14.3417 9.14645 14.1464L11.2929 12L9.14643 9.85355C8.95116 9.65829 8.95116 9.34171 9.14643 9.14645Z" fill="black"/>
</svg>
